<?xml version="1.0" standalone="no"?>
<!DOCTYPE svg PUBLIC "-//W3C//DTD SVG 20010904//EN"
 "http://www.w3.org/TR/2001/REC-SVG-20010904/DTD/svg10.dtd">
<svg version="1.0" xmlns="http://www.w3.org/2000/svg"
 width="512.000000pt" height="512.000000pt" viewBox="0 0 512.000000 512.000000"
 preserveAspectRatio="xMidYMid meet">
<metadata>
Created by potrace 1.14, written by Peter Selinger 2001-2017
</metadata>
<g transform="translate(0.000000,512.000000) scale(0.100000,-0.100000)"
fill="#000000" stroke="none">
<path d="M1924 4509 c-100 -18 -178 -92 -210 -199 -4 -14 -8 -217 -8 -452 -1
-234 -3 -428 -6 -430 -3 -2 -27 -15 -53 -29 -63 -34 -142 -101 -193 -164 -33
-40 -62 -61 -135 -98 -137 -69 -218 -134 -279 -223 -41 -59 -51 -89 -55 -161
-2 -42 -10 -72 -23 -90 -32 -45 -58 -96 -66 -128 -13 -52 -8 -171 9 -225 3
-10 7 -27 9 -37 7 -36 71 -159 110 -213 37 -50 40 -59 37 -110 -13 -220 15
-359 94 -480 44 -66 134 -160 154 -160 6 0 11 -4 11 -10 0 -5 4 -10 9 -10 5 0
29 -12 55 -26 45 -25 45 -26 32 -53 -25 -48 -116 -331 -116 -361 0 -61 31
-105 91 -132 16 -7 29 -16 29 -19 0 -14 149 -43 220 -43 86 -1 121 5 170 26
19 8 48 18 64 22 51 13 91 63 110 141 10 39 20 80 22 93 10 50 54 225 58 229
2 3 49 5 103 5 113 0 201 23 272 72 l41 29 82 -28 c69 -23 104 -29 203 -31 80
-3 137 1 172 10 28 8 54 11 57 8 3 -3 6 0 6 7 0 7 4 10 9 7 5 -3 43 8 85 25
84 34 106 39 121 30 6 -3 19 -7 30 -9 33 -5 60 -10 60 -12 0 -6 152 -22 205
-22 124 0 256 34 345 90 50 32 109 93 124 130 8 20 28 37 63 53 57 26 126 98
157 162 29 61 48 155 46 228 -3 82 -10 114 -40 196 -25 65 -25 68 -9 115 9 27
19 63 22 81 8 40 7 194 -1 225 -37 143 -114 247 -260 350 -46 32 -83 66 -88
81 -34 90 -92 166 -169 224 -55 40 -169 92 -235 106 -33 7 -66 15 -72 17 -10
3 -13 99 -14 436 0 558 -1 565 -24 613 -27 54 -89 110 -150 133 -47 18 -85 19
-645 19 -327 0 -613 -4 -636 -8z m1235 -225 c15 -19 16 -60 15 -443 -1 -232
-5 -425 -8 -428 -3 -3 -21 6 -39 20 -96 73 -241 131 -355 141 -24 2 -46 6 -49
9 -3 3 -10 4 -16 2 -7 -2 -37 -6 -67 -9 -75 -7 -179 -40 -272 -87 -53 -26 -86
-37 -105 -34 -15 3 -50 9 -78 14 -27 5 -98 8 -157 7 -60 -1 -109 0 -109 3 -4
18 -5 779 -1 792 2 9 13 21 24 26 13 5 269 9 611 9 585 -1 589 -1 606 -22z
m-299 -898 c25 -10 56 -23 70 -29 46 -21 155 -101 206 -153 l51 -52 74 -2 c41
-1 81 -2 89 -2 33 0 138 -31 187 -54 58 -28 173 -143 173 -174 0 -10 5 -22 10
-25 6 -3 15 -26 21 -50 11 -42 15 -46 85 -81 88 -43 172 -122 211 -197 24 -47
27 -63 27 -159 1 -124 -5 -137 -56 -119 -86 30 -228 33 -310 5 -134 -44 -261
-131 -297 -203 -17 -32 -18 -40 -5 -69 15 -37 61 -62 100 -54 14 2 49 26 77
51 90 81 136 106 222 118 22 3 42 6 45 6 3 1 31 -3 63 -7 129 -17 202 -126
193 -289 -6 -106 -53 -171 -162 -226 -23 -11 -51 -35 -62 -53 -61 -98 -157
-139 -337 -143 -116 -3 -174 7 -171 28 1 6 20 37 43 67 23 30 55 81 72 112 25
49 28 61 18 82 -14 30 -71 56 -107 49 -29 -5 -38 -15 -90 -103 -59 -99 -138
-174 -234 -220 -199 -96 -347 -92 -572 15 -257 122 -325 159 -369 197 -76 67
-103 152 -71 220 22 46 49 60 122 63 77 4 111 24 120 73 8 43 -2 62 -46 83
-32 16 -135 19 -187 6 -68 -17 -153 -93 -185 -165 -48 -106 0 -259 111 -360
24 -22 130 -95 141 -98 3 0 28 -11 55 -23 28 -13 66 -29 87 -38 34 -14 56 -47
37 -58 -43 -27 -153 -36 -270 -21 l-57 7 -26 -53 c-14 -29 -27 -62 -29 -73 -2
-11 -13 -53 -25 -92 -12 -40 -31 -106 -43 -145 -36 -126 -40 -136 -56 -150
-26 -22 -296 -16 -334 7 -13 9 -6 31 82 285 43 124 79 234 81 245 2 15 -3 20
-22 21 -64 4 -110 16 -166 44 -61 30 -134 89 -134 109 0 6 -4 11 -9 11 -7 0
-60 106 -65 134 -23 110 -26 210 -11 286 18 84 74 209 102 227 51 34 125 7
192 -69 77 -88 171 -81 171 13 0 69 -127 175 -254 213 -106 32 -238 -23 -276
-114 -21 -50 -45 -39 -81 37 -23 49 -32 83 -35 133 -4 87 8 126 53 180 34 40
38 49 35 91 -9 122 130 271 316 339 55 20 70 31 104 78 116 156 244 221 443
221 169 1 319 -53 414 -149 99 -100 110 -248 22 -291 -32 -15 -27 -14 -76 -23
-99 -17 -139 -69 -97 -125 15 -21 27 -26 58 -25 81 2 149 16 203 42 54 25 80
29 91 12 7 -10 128 -70 154 -77 52 -12 155 -14 191 -4 22 6 45 11 50 12 6 1
36 15 67 31 63 34 79 64 54 103 -26 39 -66 40 -146 5 -40 -18 -94 -33 -125
-35 -47 -3 -56 -1 -80 23 -34 34 -57 78 -94 185 -45 130 -84 205 -145 279 -31
37 -56 71 -56 76 0 4 28 17 63 29 80 26 248 26 317 -1z"/>
<path d="M2103 4109 c-44 -16 -56 -74 -22 -105 20 -18 44 -19 457 -21 357 -1
441 1 464 13 48 25 49 83 0 108 -22 11 -110 14 -452 13 -234 0 -435 -3 -447
-8z"/>
<path d="M2102 3794 c-49 -20 -57 -71 -16 -103 26 -21 37 -21 464 -21 427 0
438 0 464 21 33 26 34 62 0 91 l-25 23 -430 1 c-313 0 -437 -3 -457 -12z"/>
<path d="M2712 2329 c-148 -27 -235 -138 -228 -289 4 -90 3 -85 32 -119 31
-38 83 -42 114 -11 23 23 23 25 20 98 -2 69 12 101 57 132 33 22 47 25 129 25
74 0 97 4 114 17 45 39 9 119 -63 139 -52 15 -119 18 -175 8z"/>
</g>
</svg>
